<svg xmlns="http://www.w3.org/2000/svg" width="1674" height="267" viewBox="0 0 1674 267">
  <defs>
    <style>
      .cls-1 {
        fill: #80b1e8;
        fill-rule: evenodd;
      }
    </style>
  </defs>
  <path id="Color_Fill_1" data-name="Color Fill 1" class="cls-1" d="M1522,5c14.98-.243,70.95-3.788,79,2,1.33,1,2.67,2,4,3,0.47,53.487,8.77,166.157-7,204-7.13,17.1-26.15,34.621-44,41-57.24,20.456-126.31,3.393-149-34-4.99-8.229-21.16-41.831-10-57l3-4c14.29-.246,66.29-3.555,74,2,8.96,7.014,3.81,23.4,15,29,5.62,3.361,15.12,1.676,21,0,17.58-25.37,9-92.572,9-133,0-12.86-4.02-40.408,2-49ZM76,6l80,1,4,5q0.5,54.994,1,110c2.7,6.141,33.258,33.59,40,40l5-1c10.342-4.866,17.378-15.373,27-22l5,1c15.532,32.763-9.29,59.608-33,70-17.344-7.392-25.95-24.209-40-35l-2,1-3,2c0.243,15.114,3.835,71.885-2,80l-3,4c-15.388.242-73.75,3.928-82-2l-4-3V84c0-22.773-4.739-58.732,3-76ZM260,6l80,1,4,5V192c0,13.756,3.457,58.249-2,66l-3,4-82-1-4-5V151l-40-42h-7c-6.775,8.412-17,21.233-30,23l-2-3c-13.578-28.406,12.852-65.158,36-68,14.737,9.994,23.887,24.031,38,34,3.827-1.321,2.08,0,4-3,8.967-23.558-5.573-62.624,4-84ZM743,8c92.608-1.116,202.608-18.234,230,49,4.948,12.145,8.409,39.945,3,56-7.485,22.215-28.138,29.417-39,47,3.945,17.88,51.678,87.182,46,97-5.351,7.358-78.329,6.9-93,4-17.829-25.42-25.7-66.655-48-88l-12,1-4,2c-2.772,16.679,4.527,71.447-3,82l-3,4-78-1-5-6q-0.5-87.991-1-176c0-20.99-4.052-53.327,3-69Zm408,0c29.07-.269,71.41-5.15,95,3q33.495,90.491,67,181c4.15,11.792,24.14,52.621,21,63-1.67,2-3.33,4-5,6-25.26.374-70.66,5.791-87-5-1.79-9.759-3.94-23.152-12-27-11.74-4.883-67.58-1.509-75,3a89.535,89.535,0,0,1-11,28c-9.65,2.733-75.72,5.275-83,0-2.24-1.407-2.51-1.971-4-4,2.64-20.971,13.74-40.848,21-59q21.495-58.494,43-117C1130.14,56.826,1133.99,23.617,1151,8ZM486,9c18.076,0.045,85.986-4.966,96,2,7.613,5.3,16.91,43.693,21,55l50,133c3.656,10.1,20.8,52.983,17,59l-3,4-85-1c-6.167-9.172-9.548-23.224-16-32-22.313-.38-61.265-4.771-75,5-1.872,8.993-4.824,19.123-9,26-9.784,2.766-77.671,5.305-85,0l-4-3,17-48q24.5-66.993,49-134C467.382,53.973,470.858,23.614,486,9ZM830,74l-4,3v27q1,2,2,4c21.347,4.559,52.863,3.224,59-12q0.5-4,1-8C879.343,70.518,856.216,73.29,830,74Zm363,34q-7.5,25.5-15,51l3,4c10.93,0.351,24.47.93,31-3,0.33-.667.67-1.333,1-2q-7.5-25-15-50h-5Zm-664,1c-4.413,9.8-18.98,48.517-11,54,7.581,3.409,25.083,1.055,30-2-0.594-15.994-8.111-39.622-15-52h-4Z"/>
</svg>
